<svg xmlns="http://www.w3.org/2000/svg" viewBox="0 0 343.77393 57.60547">
  <title>kbhpartyAsset 1inst</title>
  <g id="a15ea184-0af8-4486-abf9-55e383c04608" data-name="Layer 2">
    <g id="ecabbd7b-1256-43c5-9d22-5877d4624587" data-name="Layer 1">
      <g>
        <path d="M0,28.51465,29.45068,14.40137V20.666L6.04834,31.68359,29.45068,42.69922v6.26562L0,34.85156Z"/>
        <path d="M67.27441,0,38.03955,57.60547H31.84717L61.08154,0Z"/>
        <path d="M116.48,54.00488H111.5835l-.86377-5.1123c-2.3042,3.3125-7.417,5.68847-12.81739,5.68847-6.04834,0-11.23291-3.60058-11.23291-11.0166,0-8.06445,6.48047-11.88086,16.41748-11.88086h7.34473v-1.585c0-5.61621-3.96045-7.48828-8.353-7.48828a8.84169,8.84169,0,0,0-8.56836,6.19238l-5.32861-1.43945c1.65625-6.33789,7.27246-10.22558,13.897-10.22558,8.49707,0,14.40137,3.96,14.40137,13.96972ZM98.83838,49.1084c4.68066,0,11.59326-2.87988,11.59326-11.08887V36.86719h-7.9209c-6.19238,0-9.64892,2.59179-9.64892,6.69726C92.86182,47.02051,95.23828,49.1084,98.83838,49.1084Z"/>
        <path d="M151.544,24.98633l-4.75245,3.38476c-2.23242-4.0332-4.8247-5.76074-8.71289-5.76074-3.09619,0-6.26465,1.2959-6.26465,4.82422,0,3.09668,3.02442,4.53613,8.42481,5.61621,6.76855,1.36817,13.0332,3.3125,13.0332,9.86524,0,7.48828-6.48047,11.665-13.96924,11.665-7.27246,0-13.53711-3.60058-15.76953-10.51269L129.294,41.9082a10.09823,10.09823,0,0,0,10.00878,7.2002c4.1045,0,7.70459-1.79981,7.70459-5.61621,0-3.09668-3.60009-4.10449-9.36084-5.32813-6.1206-1.29687-11.73681-3.38476-11.73681-10.51367,0-6.48047,5.68847-10.51269,12.38476-10.51269C144.84717,17.1377,148.80762,20.01758,151.544,24.98633Z"/>
        <path d="M157.74854,17.71387h9.64892V6.84082l6.04834-3.81641V17.71387h17.71338v5.47168H173.4458V41.76367c0,5.041,2.23242,7.34473,6.26465,7.34473,3.16846,0,5.76025-1.00781,8.92871-4.32031l2.23242,5.1123a14.50016,14.50016,0,0,1-11.16113,4.68066c-7.9209,0-12.313-4.17675-12.313-12.60058V23.18555h-9.64892Z"/>
        <path d="M223.0791,29.23438c-.50439-4.17579-2.66455-6.624-6.98486-6.624-6.33643,0-12.313,5.97656-12.313,18.29V54.00488h-6.04834v-36.291h6.04834v6.69629a15.317,15.317,0,0,1,13.39307-7.27246c7.20068,0,11.521,4.32031,11.95312,12.09668Z"/>
        <path d="M267.231,37.15527H238.86035c.35986,7.2002,4.75244,11.95313,11.16113,11.95313,5.47217,0,9.2168-2.66406,11.665-7.2002l4.82422,2.51953c-3.96045,7.63282-9.7207,10.15332-16.48926,10.15332-10.585,0-17.35351-8.13671-17.35351-18.72167,0-10.22461,6.48047-18.72168,17.35351-18.72168,11.23291,0,17.20948,7.99316,17.20948,17.49707Zm-27.93848-5.47168h21.52979c-1.08008-5.76171-4.89649-9.07324-10.80079-9.07324C244.189,22.61035,240.5166,26.21094,239.29248,31.68359Z"/>
        <path d="M307.49463,17.71387l-15.19336,36.291h-6.04834l-15.19336-36.291h6.55225l11.665,29.09082,11.665-29.09082Z"/>
        <path d="M343.77393,34.85156,314.32324,48.96484V42.69922L337.7251,31.68359,314.32324,20.666V14.40137l29.45069,14.11328Z"/>
        <polygon points="79.616 47.957 79.616 3.601 73.279 3.601 73.279 54.005 79.616 54.005 79.616 47.957"/>
      </g>
    </g>
  </g>
</svg>
